<?xml version="1.0" encoding="UTF-8"?>
<!--Generator: Apple Native CoreSVG 149-->
<!DOCTYPE svg
PUBLIC "-//W3C//DTD SVG 1.1//EN"
       "http://www.w3.org/Graphics/SVG/1.1/DTD/svg11.dtd">
<svg version="1.1" xmlns="http://www.w3.org/2000/svg" xmlns:xlink="http://www.w3.org/1999/xlink" width="3300" height="2200">
 <!--glyph: "uni10032F.medium", point size: 100.000000, font version: "Version 16.0d12e3", template writer version: "8"-->
 <g id="Notes">
  <rect height="2200" id="artboard" style="fill:white;opacity:1" width="3300" x="0" y="0"/>
  <line id="" style="fill:none;stroke:black;opacity:1;stroke-width:0.5;" x1="263" x2="3036" y1="292" y2="292"/>
  <text style="stroke:none;fill:black;font-family:-apple-system,&quot;SF Pro Display&quot;,&quot;SF Pro Text&quot;,Helvetica,sans-serif;font-weight:bold;" transform="matrix(1 0 0 1 263 322)">Weight/Scale Variations</text>
  <text style="stroke:none;fill:black;font-family:-apple-system,&quot;SF Pro Display&quot;,&quot;SF Pro Text&quot;,Helvetica,sans-serif;text-anchor:middle;" transform="matrix(1 0 0 1 559.711 322)">Ultralight</text>
  <text style="stroke:none;fill:black;font-family:-apple-system,&quot;SF Pro Display&quot;,&quot;SF Pro Text&quot;,Helvetica,sans-serif;text-anchor:middle;" transform="matrix(1 0 0 1 856.422 322)">Thin</text>
  <text style="stroke:none;fill:black;font-family:-apple-system,&quot;SF Pro Display&quot;,&quot;SF Pro Text&quot;,Helvetica,sans-serif;text-anchor:middle;" transform="matrix(1 0 0 1 1153.13 322)">Light</text>
  <text style="stroke:none;fill:black;font-family:-apple-system,&quot;SF Pro Display&quot;,&quot;SF Pro Text&quot;,Helvetica,sans-serif;text-anchor:middle;" transform="matrix(1 0 0 1 1449.84 322)">Regular</text>
  <text style="stroke:none;fill:black;font-family:-apple-system,&quot;SF Pro Display&quot;,&quot;SF Pro Text&quot;,Helvetica,sans-serif;text-anchor:middle;" transform="matrix(1 0 0 1 1746.56 322)">Medium</text>
  <text style="stroke:none;fill:black;font-family:-apple-system,&quot;SF Pro Display&quot;,&quot;SF Pro Text&quot;,Helvetica,sans-serif;text-anchor:middle;" transform="matrix(1 0 0 1 2043.27 322)">Semibold</text>
  <text style="stroke:none;fill:black;font-family:-apple-system,&quot;SF Pro Display&quot;,&quot;SF Pro Text&quot;,Helvetica,sans-serif;text-anchor:middle;" transform="matrix(1 0 0 1 2339.98 322)">Bold</text>
  <text style="stroke:none;fill:black;font-family:-apple-system,&quot;SF Pro Display&quot;,&quot;SF Pro Text&quot;,Helvetica,sans-serif;text-anchor:middle;" transform="matrix(1 0 0 1 2636.69 322)">Heavy</text>
  <text style="stroke:none;fill:black;font-family:-apple-system,&quot;SF Pro Display&quot;,&quot;SF Pro Text&quot;,Helvetica,sans-serif;text-anchor:middle;" transform="matrix(1 0 0 1 2933.4 322)">Black</text>
  <line id="" style="fill:none;stroke:black;opacity:1;stroke-width:0.5;" x1="263" x2="3036" y1="1903" y2="1903"/>
  <g id="" transform="matrix(1 0 0 1 263 1933)">
   <path d="M9.24805 0.830078C13.5547 0.830078 17.1387-2.74414 17.1387-7.05078C17.1387-11.3574 13.5449-14.9316 9.23828-14.9316C4.94141-14.9316 1.36719-11.3574 1.36719-7.05078C1.36719-2.74414 4.95117 0.830078 9.24805 0.830078ZM9.24805-0.654297C5.70312-0.654297 2.87109-3.49609 2.87109-7.05078C2.87109-10.6055 5.69336-13.4473 9.23828-13.4473C12.793-13.4473 15.6348-10.6055 15.6445-7.05078C15.6543-3.49609 12.8027-0.654297 9.24805-0.654297ZM9.22852-3.62305C9.69727-3.62305 9.9707-3.93555 9.9707-4.45312L9.9707-6.31836L12.002-6.31836C12.5-6.31836 12.832-6.57227 12.832-7.04102C12.832-7.51953 12.5195-7.7832 12.002-7.7832L9.9707-7.7832L9.9707-9.81445C9.9707-10.332 9.69727-10.6543 9.22852-10.6543C8.75977-10.6543 8.50586-10.3125 8.50586-9.81445L8.50586-7.7832L6.49414-7.7832C5.97656-7.7832 5.64453-7.51953 5.64453-7.04102C5.64453-6.57227 5.99609-6.31836 6.49414-6.31836L8.50586-6.31836L8.50586-4.45312C8.50586-3.95508 8.75977-3.62305 9.22852-3.62305Z"/>
  </g>
  <g id="" transform="matrix(1 0 0 1 281.506 1933)">
   <path d="M11.709 2.91016C17.1582 2.91016 21.6699-1.61133 21.6699-7.05078C21.6699-12.5 17.1484-17.0117 11.6992-17.0117C6.25977-17.0117 1.74805-12.5 1.74805-7.05078C1.74805-1.61133 6.26953 2.91016 11.709 2.91016ZM11.709 1.25C7.09961 1.25 3.41797-2.44141 3.41797-7.05078C3.41797-11.6602 7.08984-15.3516 11.6992-15.3516C16.3086-15.3516 20-11.6602 20.0098-7.05078C20.0195-2.44141 16.3184 1.25 11.709 1.25ZM11.6797-2.66602C12.207-2.66602 12.5098-3.01758 12.5098-3.59375L12.5098-6.23047L15.3223-6.23047C15.8691-6.23047 16.25-6.51367 16.25-7.03125C16.25-7.55859 15.8887-7.86133 15.3223-7.86133L12.5098-7.86133L12.5098-10.6836C12.5098-11.25 12.207-11.6113 11.6797-11.6113C11.1621-11.6113 10.8789-11.2305 10.8789-10.6836L10.8789-7.86133L8.07617-7.86133C7.50977-7.86133 7.13867-7.55859 7.13867-7.03125C7.13867-6.51367 7.5293-6.23047 8.07617-6.23047L10.8789-6.23047L10.8789-3.59375C10.8789-3.03711 11.1621-2.66602 11.6797-2.66602Z"/>
  </g>
  <g id="" transform="matrix(1 0 0 1 304.924 1933)">
   <path d="M14.9707 5.66406C21.9336 5.66406 27.6953-0.0976562 27.6953-7.05078C27.6953-14.0137 21.9238-19.7754 14.9609-19.7754C8.00781-19.7754 2.25586-14.0137 2.25586-7.05078C2.25586-0.0976562 8.01758 5.66406 14.9707 5.66406ZM14.9707 3.84766C8.93555 3.84766 4.08203-1.01562 4.08203-7.05078C4.08203-13.0957 8.92578-17.9492 14.9609-17.9492C21.0059-17.9492 25.8594-13.0957 25.8691-7.05078C25.8789-1.01562 21.0156 3.84766 14.9707 3.84766ZM14.9414-1.38672C15.5176-1.38672 15.8594-1.77734 15.8594-2.38281L15.8594-6.13281L19.7754-6.13281C20.3711-6.13281 20.7812-6.46484 20.7812-7.02148C20.7812-7.59766 20.3906-7.93945 19.7754-7.93945L15.8594-7.93945L15.8594-11.8652C15.8594-12.4805 15.5176-12.8711 14.9414-12.8711C14.375-12.8711 14.0527-12.4609 14.0527-11.8652L14.0527-7.93945L10.1465-7.93945C9.53125-7.93945 9.13086-7.59766 9.13086-7.02148C9.13086-6.46484 9.55078-6.13281 10.1465-6.13281L14.0527-6.13281L14.0527-2.38281C14.0527-1.79688 14.375-1.38672 14.9414-1.38672Z"/>
  </g>
  <text style="stroke:none;fill:black;font-family:-apple-system,&quot;SF Pro Display&quot;,&quot;SF Pro Text&quot;,Helvetica,sans-serif;font-weight:bold;" transform="matrix(1 0 0 1 263 1953)">Design Variations</text>
  <text style="stroke:none;fill:black;font-family:-apple-system,&quot;SF Pro Display&quot;,&quot;SF Pro Text&quot;,Helvetica,sans-serif;" transform="matrix(1 0 0 1 263 1971)">Symbols are supported in up to nine weights and three scales.</text>
  <text style="stroke:none;fill:black;font-family:-apple-system,&quot;SF Pro Display&quot;,&quot;SF Pro Text&quot;,Helvetica,sans-serif;" transform="matrix(1 0 0 1 263 1989)">For optimal layout with text and other symbols, vertically align</text>
  <text style="stroke:none;fill:black;font-family:-apple-system,&quot;SF Pro Display&quot;,&quot;SF Pro Text&quot;,Helvetica,sans-serif;" transform="matrix(1 0 0 1 263 2007)">symbols with the adjacent text.</text>
  <line id="" style="fill:none;stroke:#00AEEF;stroke-width:0.5;opacity:1.0;" x1="776" x2="776" y1="1919" y2="1933"/>
  <g id="" transform="matrix(1 0 0 1 776 1933)">
   <path d="M3.31055 0.126953C3.82812 0.126953 4.08203-0.0683594 4.26758-0.605469L5.52734-4.0625L11.2891-4.0625L12.5488-0.605469C12.7344-0.0683594 12.9883 0.126953 13.4961 0.126953C14.0137 0.126953 14.3457-0.185547 14.3457-0.673828C14.3457-0.839844 14.3164-0.986328 14.2383-1.20117L9.6582-13.3887C9.43359-13.9941 9.0332-14.2871 8.4082-14.2871C7.80273-14.2871 7.39258-13.9941 7.17773-13.3984L2.59766-1.19141C2.51953-0.976562 2.49023-0.830078 2.49023-0.664062C2.49023-0.175781 2.80273 0.126953 3.31055 0.126953ZM6.00586-5.53711L8.37891-12.1094L8.42773-12.1094L10.8008-5.53711Z"/>
  </g>
  <line id="" style="fill:none;stroke:#00AEEF;stroke-width:0.5;opacity:1.0;" x1="792.836" x2="792.836" y1="1919" y2="1933"/>
  <text style="stroke:none;fill:black;font-family:-apple-system,&quot;SF Pro Display&quot;,&quot;SF Pro Text&quot;,Helvetica,sans-serif;font-weight:bold;" transform="matrix(1 0 0 1 776 1953)">Margins</text>
  <text style="stroke:none;fill:black;font-family:-apple-system,&quot;SF Pro Display&quot;,&quot;SF Pro Text&quot;,Helvetica,sans-serif;" transform="matrix(1 0 0 1 776 1971)">Leading and trailing margins on the left and right side of each symbol</text>
  <text style="stroke:none;fill:black;font-family:-apple-system,&quot;SF Pro Display&quot;,&quot;SF Pro Text&quot;,Helvetica,sans-serif;" transform="matrix(1 0 0 1 776 1989)">can be adjusted by modifying the x-location of the margin guidelines.</text>
  <text style="stroke:none;fill:black;font-family:-apple-system,&quot;SF Pro Display&quot;,&quot;SF Pro Text&quot;,Helvetica,sans-serif;" transform="matrix(1 0 0 1 776 2007)">Modifications are automatically applied proportionally to all</text>
  <text style="stroke:none;fill:black;font-family:-apple-system,&quot;SF Pro Display&quot;,&quot;SF Pro Text&quot;,Helvetica,sans-serif;" transform="matrix(1 0 0 1 776 2025)">scales and weights.</text>
  <g id="" transform="matrix(1 0 0 1 1289 1933)">
   <path d="M2.8418 1.86523L4.54102 3.57422C5.40039 4.44336 6.38672 4.38477 7.31445 3.35938L17.4902-7.85156C17.7539-7.76367 18.0273-7.7832 18.3398-7.8418L19.4043-8.03711L20.0684-7.36328L20.0293-6.80664C19.9902-6.30859 20.1172-5.92773 20.6055-5.44922L21.3672-4.70703C21.8457-4.22852 22.4609-4.19922 22.9297-4.66797L25.8398-7.58789C26.3086-8.05664 26.2891-8.65234 25.8105-9.13086L25.0391-9.89258C24.5605-10.3711 24.1895-10.5273 23.7109-10.4883L23.1348-10.4395L22.4902-11.0742L22.7344-12.1973C22.8613-12.7637 22.7051-13.2031 22.1191-13.7891L19.9219-15.9766C16.582-19.2969 12.1484-19.2188 9.25781-16.3281C8.83789-15.918 8.80859-15.3418 9.04297-14.9512C9.27734-14.5898 9.73633-14.3555 10.3809-14.5215C11.8457-14.8633 13.3691-14.9219 14.7949-13.9844L14.209-12.5293C14.0137-12.0508 13.9844-11.6504 14.1113-11.2891L3.04688-0.898438C2.06055 0.0195312 1.98242 0.996094 2.8418 1.86523ZM10.752-15.957C13.1836-17.7344 16.4746-17.4316 18.7012-15.2051L21.1328-12.793C21.3672-12.5586 21.4062-12.373 21.3379-12.0312L21.0156-10.5469L22.5195-9.0625L23.5059-9.12109C23.7598-9.13086 23.8379-9.11133 24.0332-8.91602L24.6094-8.33984L22.168-5.89844L21.5918-6.47461C21.3965-6.66992 21.3672-6.74805 21.377-7.01172L21.4453-7.98828L19.9512-9.47266L18.4277-9.21875C18.1055-9.15039 17.959-9.17969 17.7148-9.41406L15.7129-11.416C15.459-11.6504 15.4297-11.8164 15.5859-12.1875L16.4648-14.2773C14.9023-15.7324 12.8711-16.3574 10.8398-15.7617C10.6836-15.7227 10.625-15.8496 10.752-15.957ZM5.27344 2.30469L4.10156 1.14258C3.63281 0.683594 3.74023 0.341797 4.14062-0.0195312L14.9512-10.1953L16.416-8.71094L6.42578 2.27539C6.07422 2.67578 5.74219 2.77344 5.27344 2.30469Z"/>
  </g>
  <text style="stroke:none;fill:black;font-family:-apple-system,&quot;SF Pro Display&quot;,&quot;SF Pro Text&quot;,Helvetica,sans-serif;font-weight:bold;" transform="matrix(1 0 0 1 1289 1953)">Exporting</text>
  <text style="stroke:none;fill:black;font-family:-apple-system,&quot;SF Pro Display&quot;,&quot;SF Pro Text&quot;,Helvetica,sans-serif;" transform="matrix(1 0 0 1 1289 1971)">Symbols should be outlined when exporting to ensure the</text>
  <text style="stroke:none;fill:black;font-family:-apple-system,&quot;SF Pro Display&quot;,&quot;SF Pro Text&quot;,Helvetica,sans-serif;" transform="matrix(1 0 0 1 1289 1989)">design is preserved when submitting to Xcode.</text>
  <text id="template-version" style="stroke:none;fill:black;font-family:-apple-system,&quot;SF Pro Display&quot;,&quot;SF Pro Text&quot;,Helvetica,sans-serif;text-anchor:end;" transform="matrix(1 0 0 1 3036 1933)">Template v.2.0</text>
  <text style="stroke:none;fill:black;font-family:-apple-system,&quot;SF Pro Display&quot;,&quot;SF Pro Text&quot;,Helvetica,sans-serif;text-anchor:end;" transform="matrix(1 0 0 1 3036 1951)">Requires Xcode 12 or greater</text>
  <text style="stroke:none;fill:black;font-family:-apple-system,&quot;SF Pro Display&quot;,&quot;SF Pro Text&quot;,Helvetica,sans-serif;text-anchor:end;" transform="matrix(1 0 0 1 3036 1969)">Generated from quote.bubble.fill</text>
  <text style="stroke:none;fill:black;font-family:-apple-system,&quot;SF Pro Display&quot;,&quot;SF Pro Text&quot;,Helvetica,sans-serif;text-anchor:end;" transform="matrix(1 0 0 1 3036 1987)">Typeset at 100 points</text>
  <text style="stroke:none;fill:black;font-family:-apple-system,&quot;SF Pro Display&quot;,&quot;SF Pro Text&quot;,Helvetica,sans-serif;" transform="matrix(1 0 0 1 263 726)">Small</text>
  <text style="stroke:none;fill:black;font-family:-apple-system,&quot;SF Pro Display&quot;,&quot;SF Pro Text&quot;,Helvetica,sans-serif;" transform="matrix(1 0 0 1 263 1156)">Medium</text>
  <text style="stroke:none;fill:black;font-family:-apple-system,&quot;SF Pro Display&quot;,&quot;SF Pro Text&quot;,Helvetica,sans-serif;" transform="matrix(1 0 0 1 263 1586)">Large</text>
 </g>
 <g id="Guides">
  <g id="H-reference" style="fill:#27AAE1;stroke:none;" transform="matrix(1 0 0 1 339 696)">
   <path d="M0.976562 0L3.66211 0L12.9883-24.4629L45.752-24.4629L55.127 0L57.7637 0L30.6152-70.459L28.125-70.459ZM29.3457-67.1387L29.4434-67.1387L44.873-26.709L13.8672-26.709Z"/>
  </g>
  <line id="Baseline-S" style="fill:none;stroke:#27AAE1;opacity:1;stroke-width:0.5;" x1="263" x2="3036" y1="696" y2="696"/>
  <line id="Capline-S" style="fill:none;stroke:#27AAE1;opacity:1;stroke-width:0.5;" x1="263" x2="3036" y1="625.541" y2="625.541"/>
  <g id="H-reference" style="fill:#27AAE1;stroke:none;" transform="matrix(1 0 0 1 339 1126)">
   <path d="M0.976562 0L3.66211 0L12.9883-24.4629L45.752-24.4629L55.127 0L57.7637 0L30.6152-70.459L28.125-70.459ZM29.3457-67.1387L29.4434-67.1387L44.873-26.709L13.8672-26.709Z"/>
  </g>
  <line id="Baseline-M" style="fill:none;stroke:#27AAE1;opacity:1;stroke-width:0.5;" x1="263" x2="3036" y1="1126" y2="1126"/>
  <line id="Capline-M" style="fill:none;stroke:#27AAE1;opacity:1;stroke-width:0.5;" x1="263" x2="3036" y1="1055.54" y2="1055.54"/>
  <g id="H-reference" style="fill:#27AAE1;stroke:none;" transform="matrix(1 0 0 1 339 1556)">
   <path d="M0.976562 0L3.66211 0L12.9883-24.4629L45.752-24.4629L55.127 0L57.7637 0L30.6152-70.459L28.125-70.459ZM29.3457-67.1387L29.4434-67.1387L44.873-26.709L13.8672-26.709Z"/>
  </g>
  <line id="Baseline-L" style="fill:none;stroke:#27AAE1;opacity:1;stroke-width:0.5;" x1="263" x2="3036" y1="1556" y2="1556"/>
  <line id="Capline-L" style="fill:none;stroke:#27AAE1;opacity:1;stroke-width:0.5;" x1="263" x2="3036" y1="1485.54" y2="1485.54"/>
  <line id="left-margin" style="fill:none;stroke:#00AEEF;stroke-width:0.5;opacity:1.0;" x1="1383.58" x2="1383.58" y1="1030.79" y2="1150.12"/>
  <line id="right-margin" style="fill:none;stroke:#00AEEF;stroke-width:0.5;opacity:1.0;" x1="1516.1" x2="1516.1" y1="1030.79" y2="1150.12"/>
 </g>
 <g id="Symbols">
  <g id="Black-L" transform="matrix(1 0 0 1 2846.24 1556)">
   <path d="M55.1758 39.0625C58.3496 39.0625 60.9863 37.8418 64.8926 34.375L89.4043 12.8418L125.83 12.8418C145.703 12.8906 158.252 0.195312 158.252-19.5801L158.252-70.1172C158.252-89.8926 145.703-102.539 125.83-102.539L48.4863-102.539C28.6133-102.539 16.0645-89.8926 16.0645-70.1172L16.0645-19.5801C16.0645 0.195312 29.7852 12.8418 46.7285 12.8418L47.6562 12.8418L47.6562 30.8105C47.6562 35.9375 50.5371 39.0625 55.1758 39.0625ZM53.6133-51.3184C53.6133-60.1074 59.9609-66.4551 68.7988-66.4551C79.1504-66.4551 85.3027-58.0566 85.3027-47.7051C85.3027-33.4961 73.0469-23.3398 64.5508-23.3398C62.3535-23.3398 60.5469-24.5117 60.5469-26.709C60.5469-28.418 61.6211-29.5898 63.5742-30.0293C70.459-31.543 75.1465-35.7422 76.5137-40.1855L75.0488-40.1855C73.1445-37.9395 70.1172-36.9141 66.4551-36.9141C58.8867-36.9141 53.6133-42.9688 53.6133-51.3184ZM90.625-51.3184C90.625-60.1074 96.9727-66.4551 105.811-66.4551C116.162-66.4551 122.314-58.0566 122.314-47.7051C122.314-33.4961 110.059-23.3398 101.611-23.3398C99.3652-23.3398 97.6074-24.5117 97.6074-26.709C97.6074-28.418 98.6816-29.5898 100.586-30.0293C107.568-31.543 112.158-35.7422 113.525-40.1855L112.061-40.1855C110.156-37.9395 107.129-36.9141 103.467-36.9141C95.8984-36.9141 90.625-42.9688 90.625-51.3184Z"/>
  </g>
  <g id="Heavy-L" transform="matrix(1 0 0 1 2550.07 1556)">
   <path d="M54.4434 37.6953C57.4219 37.6953 59.8145 36.5234 63.3789 33.3008L87.5 12.0117L125.879 12.0117C145.264 12.0605 157.178-0.0488281 157.178-19.2383L157.178-69.6289C157.178-88.8184 145.264-100.879 125.879-100.879L47.3145-100.879C27.9785-100.879 16.0645-88.8672 16.0645-69.6289L16.0645-19.2383C16.0645 0 28.8574 12.0117 45.9961 12.0117L47.5586 12.0117L47.5586 30.0781C47.5586 34.7656 50.1465 37.6953 54.4434 37.6953ZM54.0527-50.8789C54.0527-59.2773 60.2051-65.332 68.7012-65.332C78.3691-65.332 84.375-57.4219 84.375-47.5586C84.375-33.1055 72.0703-23.6328 64.209-23.6328C62.1582-23.6328 60.498-24.8535 60.498-26.8555C60.498-28.4668 61.4746-29.6387 63.4766-30.127C69.6289-31.4941 74.3652-35.4492 75.9277-40.0879L74.6582-40.0879C72.8027-37.8906 69.9219-37.0117 66.5039-37.0117C59.1309-37.0117 54.0527-42.8711 54.0527-50.8789ZM90.0879-50.8789C90.0879-59.2773 96.2402-65.332 104.688-65.332C114.404-65.332 120.361-57.4219 120.361-47.5586C120.361-33.1055 108.105-23.6328 100.293-23.6328C98.1445-23.6328 96.5332-24.8535 96.5332-26.8555C96.5332-28.4668 97.5098-29.6387 99.4629-30.127C105.664-31.4941 110.4-35.4492 111.963-40.0879L110.693-40.0879C108.838-37.8906 105.957-37.0117 102.539-37.0117C95.1172-37.0117 90.0879-42.8711 90.0879-50.8789Z"/>
  </g>
  <g id="Bold-L" transform="matrix(1 0 0 1 2253.97 1556)">
   <path d="M53.6621 36.1816C56.3477 36.1816 58.4473 35.0098 61.6699 32.0801L85.3027 11.0352L125.977 11.084C144.727 11.1328 155.957-0.292969 155.957-18.8965L155.957-69.043C155.957-87.6465 144.727-99.0234 125.977-99.0234L46.0449-99.0234C27.2461-99.0234 16.0645-87.6953 16.0645-69.043L16.0645-18.8965C16.0645-0.244141 27.832 11.0352 45.166 11.0352L47.4121 11.0352L47.4121 29.1992C47.4121 33.4961 49.7559 36.1816 53.6621 36.1816ZM54.5898-50.3418C54.5898-58.3008 60.498-64.0137 68.5547-64.0137C77.5391-64.0137 83.3008-56.7383 83.3008-47.4121C83.3008-32.666 70.9961-24.0234 63.8184-24.0234C61.9141-24.0234 60.4004-25.1953 60.4004-27.0508C60.4004-28.6133 61.2793-29.6387 63.3301-30.1758C68.6523-31.4453 73.4863-35.1562 75.2441-39.9902L74.2676-39.9902C72.5098-37.8418 69.7266-37.1094 66.6016-37.1094C59.375-37.1094 54.5898-42.7734 54.5898-50.3418ZM89.502-50.3418C89.502-58.3008 95.4102-64.0137 103.418-64.0137C112.402-64.0137 118.262-56.7383 118.262-47.4121C118.262-32.666 105.908-24.0234 98.7793-24.0234C96.8262-24.0234 95.3613-25.1953 95.3613-27.0508C95.3613-28.6133 96.1914-29.6387 98.1934-30.1758C103.613-31.4453 108.398-35.1562 110.156-39.9902L109.18-39.9902C107.422-37.8418 104.639-37.1094 101.514-37.1094C94.2871-37.1094 89.502-42.7734 89.502-50.3418Z"/>
  </g>
  <g id="Semibold-L" transform="matrix(1 0 0 1 1957.7 1556)">
   <path d="M53.0762 35.1074C55.6152 35.1074 57.5195 33.9355 60.4492 31.25L83.8379 10.4004L126.025 10.4492C144.385 10.498 155.078-0.439453 155.078-18.6035L155.078-68.6523C155.078-86.8164 144.385-97.7539 126.025-97.7539L45.166-97.7539C26.7578-97.7539 16.0645-86.8652 16.0645-68.6523L16.0645-18.6035C16.0645-0.390625 27.1484 10.4004 44.5801 10.4004L47.3633 10.4004L47.3633 28.6133C47.3633 32.5684 49.5117 35.1074 53.0762 35.1074ZM54.9316-50C54.9316-57.6172 60.6934-63.1348 68.457-63.1348C76.9531-63.1348 82.6172-56.25 82.6172-47.3145C82.6172-32.373 70.2637-24.2676 63.5742-24.2676C61.7188-24.2676 60.3516-25.4395 60.3516-27.1973C60.3516-28.6621 61.1328-29.6875 63.2324-30.2246C67.9688-31.3965 72.8516-34.9609 74.7559-39.9414L73.9746-39.9414C72.2656-37.8418 69.5801-37.1582 66.6504-37.1582C59.5703-37.1582 54.9316-42.6758 54.9316-50ZM89.1113-50C89.1113-57.6172 94.8242-63.1348 102.539-63.1348C111.035-63.1348 116.748-56.25 116.748-47.3145C116.748-32.373 104.443-24.2676 97.7539-24.2676C95.8984-24.2676 94.5312-25.4395 94.5312-27.1973C94.5312-28.6621 95.3125-29.6875 97.3633-30.2246C102.148-31.3965 106.982-34.9609 108.936-39.9414L108.105-39.9414C106.396-37.8418 103.711-37.1582 100.781-37.1582C93.75-37.1582 89.1113-42.6758 89.1113-50Z"/>
  </g>
  <g id="Medium-L" transform="matrix(1 0 0 1 1661.3 1556)">
   <path d="M52.6855 34.3262C55.0293 34.3262 56.7871 33.1543 59.5703 30.6152L82.7148 9.91211L126.025 9.96094C144.092 10.0098 154.443-0.585938 154.443-18.457L154.443-68.3594C154.443-86.2305 144.092-96.7773 126.025-96.7773L44.4824-96.7773C26.3672-96.7773 16.0645-86.2793 16.0645-68.3594L16.0645-18.457C16.0645-0.537109 26.6113 9.91211 44.1406 9.91211L47.2656 9.91211L47.2656 28.1738C47.2656 31.8848 49.3164 34.3262 52.6855 34.3262ZM55.2246-49.707C55.2246-57.1289 60.8398-62.5 68.3594-62.5C76.5137-62.5 82.0801-55.9082 82.0801-47.2168C82.0801-32.1289 69.7266-24.4629 63.3789-24.4629C61.6211-24.4629 60.3027-25.6348 60.3027-27.2949C60.3027-28.7109 61.0352-29.6875 63.1836-30.2246C67.4805-31.3477 72.3633-34.8145 74.4141-39.8926L73.7793-39.8926C72.0703-37.8418 69.4824-37.207 66.6992-37.207C59.7168-37.207 55.2246-42.627 55.2246-49.707ZM88.7695-49.707C88.7695-57.1289 94.3848-62.5 101.904-62.5C110.01-62.5 115.625-55.9082 115.625-47.2168C115.625-32.1289 103.271-24.4629 96.9727-24.4629C95.166-24.4629 93.8965-25.6348 93.8965-27.2949C93.8965-28.7109 94.5801-29.6875 96.6797-30.2246C101.074-31.3477 105.957-34.8145 108.008-39.8926L107.324-39.8926C105.664-37.8418 103.027-37.207 100.244-37.207C93.3105-37.207 88.7695-42.627 88.7695-49.707Z"/>
  </g>
  <g id="Regular-L" transform="matrix(1 0 0 1 1365.01 1556)">
   <path d="M52.1484 33.252C54.2969 33.252 55.9082 32.1289 58.3984 29.834L81.2012 9.27734L126.074 9.32617C143.75 9.375 153.613-0.78125 153.613-18.1641L153.613-67.9688C153.613-85.4004 143.75-95.5078 126.074-95.5078L43.6035-95.5078C25.8789-95.5078 16.0645-85.4492 16.0645-67.9688L16.0645-18.1641C16.0645-0.683594 25.8789 9.27734 43.6035 9.27734L47.2168 9.27734L47.2168 27.5879C47.2168 31.0059 49.0234 33.252 52.1484 33.252ZM55.5664-49.3652C55.5664-56.4941 61.0352-61.6211 68.2617-61.6211C75.9277-61.6211 81.3477-55.4199 81.3477-47.1191C81.3477-31.8359 68.9453-24.707 63.1348-24.707C61.4746-24.707 60.2539-25.8789 60.2539-27.3926C60.2539-28.8086 60.8887-29.7363 63.0859-30.2734C66.8457-31.2988 71.7773-34.6191 73.9746-39.7949L73.4863-39.7949C71.875-37.793 69.3359-37.2559 66.748-37.2559C59.9121-37.2559 55.5664-42.5781 55.5664-49.3652ZM88.3789-49.3652C88.3789-56.4941 93.7988-61.6211 101.025-61.6211C108.691-61.6211 114.16-55.4199 114.16-47.1191C114.16-31.8359 101.807-24.707 95.9473-24.707C94.2871-24.707 93.0664-25.8789 93.0664-27.3926C93.0664-28.8086 93.7012-29.7363 95.8496-30.2734C99.6582-31.2988 104.59-34.6191 106.787-39.7949L106.299-39.7949C104.688-37.793 102.148-37.2559 99.5117-37.2559C92.7246-37.2559 88.3789-42.5781 88.3789-49.3652Z"/>
  </g>
  <g id="Light-L" transform="matrix(1 0 0 1 1069.2 1556)">
   <path d="M50.293 31.7871C52.0508 31.7871 53.3691 30.8105 55.2734 29.1016L78.125 8.93555L126.074 8.98438C142.334 9.0332 151.807-0.683594 151.807-16.6992L151.807-68.6035C151.807-84.6191 142.334-94.2871 126.074-94.2871L41.7969-94.2871C25.5371-94.2871 16.0645-84.7168 16.0645-68.6035L16.0645-16.6992C16.0645-0.585938 25.5371 8.93555 41.7969 8.93555L46.2891 8.93555L46.2891 27.2461C46.2891 29.9805 47.8516 31.7871 50.293 31.7871ZM56.1035-48.4375C56.1035-55.0781 61.2305-60.0098 68.0176-60.0098C75-60.0098 80.3711-54.3457 80.3711-46.3379C80.3711-31.8848 68.4082-25.3418 63.2324-25.3418C61.7676-25.3418 60.7422-26.416 60.7422-27.7832C60.7422-28.9551 61.3281-29.7852 63.2324-30.2734C66.5527-31.2012 71.7285-34.4727 73.7793-39.8438L73.291-39.8438C71.7285-37.793 69.2871-37.1582 66.6992-37.1582C60.2539-37.1582 56.1035-42.041 56.1035-48.4375ZM87.5-48.4375C87.5-55.0781 92.627-60.0098 99.4141-60.0098C106.396-60.0098 111.816-54.3457 111.816-46.3379C111.816-31.8848 99.8535-25.3418 94.6777-25.3418C93.2129-25.3418 92.1387-26.416 92.1387-27.7832C92.1387-28.9551 92.7246-29.7852 94.6289-30.2734C97.9492-31.2012 103.174-34.4727 105.225-39.8438L104.736-39.8438C103.174-37.793 100.684-37.1582 98.0957-37.1582C91.6992-37.1582 87.5-42.041 87.5-48.4375Z"/>
  </g>
  <g id="Thin-L" transform="matrix(1 0 0 1 773.683 1556)">
   <path d="M47.8516 29.834C49.0234 29.834 50 29.1016 51.123 28.1738L74.0234 8.49609L126.074 8.54492C140.43 8.54492 149.414-0.634766 149.414-14.7949L149.414-69.3848C149.414-83.5449 140.43-92.7246 126.074-92.7246L39.3555-92.7246C25.0488-92.7246 16.0645-83.6914 16.0645-69.3848L16.0645-14.7949C16.0645-0.488281 25.0488 8.49609 39.3555 8.49609L45.0684 8.49609L45.0684 26.709C45.0684 28.6133 46.2402 29.834 47.8516 29.834ZM56.7871-47.2656C56.7871-53.2227 61.4746-57.8613 67.6758-57.8613C73.7793-57.8613 79.1016-52.9297 79.1016-45.2637C79.1016-31.9336 67.6758-26.2207 63.4277-26.2207C62.207-26.2207 61.377-27.0508 61.377-28.2227C61.377-29.1992 61.8652-29.8828 63.4277-30.2734C66.1621-31.0547 71.6797-34.3262 73.584-39.8438L73.0957-39.8438C71.5332-37.8418 69.1895-37.0117 66.6016-37.0117C60.7422-37.0117 56.7871-41.4062 56.7871-47.2656ZM86.377-47.2656C86.377-53.2227 91.0645-57.8613 97.2656-57.8613C103.369-57.8613 108.691-52.9297 108.691-45.2637C108.691-31.9336 97.2656-26.2207 93.0176-26.2207C91.7969-26.2207 90.9668-27.0508 90.9668-28.2227C90.9668-29.1992 91.4551-29.8828 93.0176-30.2734C95.752-31.0547 101.27-34.3262 103.174-39.8438L102.686-39.8438C101.172-37.8418 98.7793-37.0117 96.1914-37.0117C90.3809-37.0117 86.377-41.4062 86.377-47.2656Z"/>
  </g>
  <g id="Ultralight-L" transform="matrix(1 0 0 1 477.607 1556)">
   <path d="M46.582 28.8086C47.5098 28.8086 48.291 28.2227 48.9746 27.7344L71.9238 8.30078L126.074 8.30078C139.453 8.30078 148.145-0.585938 148.145-13.8184L148.145-69.8242C148.145-83.0078 139.453-91.8945 126.074-91.8945L38.1348-91.8945C24.8047-91.8945 16.0645-83.2031 16.0645-69.8242L16.0645-13.8184C16.0645-0.439453 24.8047 8.30078 38.1348 8.30078L44.4824 8.30078L44.4824 26.4648C44.4824 27.9297 45.4102 28.8086 46.582 28.8086ZM57.1289-46.6309C57.1289-52.2461 61.5723-56.7871 67.4805-56.7871C73.1445-56.7871 78.418-52.1973 78.418-44.7266C78.418-31.9824 67.2852-26.6113 63.5254-26.6113C62.4512-26.6113 61.6699-27.3926 61.6699-28.4668C61.6699-29.2969 62.1582-29.8828 63.5254-30.2734C65.9668-30.957 71.6797-34.2773 73.4863-39.8438L72.998-39.8438C71.4844-37.8418 69.1406-36.9141 66.6016-36.9141C61.0352-36.9141 57.1289-41.0645 57.1289-46.6309ZM85.791-46.6309C85.791-52.2461 90.2832-56.7871 96.1426-56.7871C101.807-56.7871 107.08-52.1973 107.08-44.7266C107.08-31.9824 95.9473-26.6113 92.1875-26.6113C91.1133-26.6113 90.332-27.3926 90.332-28.4668C90.332-29.2969 90.8203-29.8828 92.1875-30.2734C94.5801-30.957 100.293-34.2773 102.1-39.8438L101.66-39.8438C100.146-37.8418 97.8027-36.9141 95.2637-36.9141C89.6484-36.9141 85.791-41.0645 85.791-46.6309Z"/>
  </g>
  <g id="Black-M" transform="matrix(1 0 0 1 2865.58 1126)">
   <path d="M42.7246 23.3887C45.3125 23.3887 47.5586 22.5586 50.6836 19.7754L70.2637 2.97852L97.4609 2.97852C112.793 2.97852 123.193-7.42188 123.193-22.7539L123.193-63.2812C123.193-78.6133 112.793-89.0137 97.4609-89.0137L38.1836-89.0137C22.8516-89.0137 12.4512-78.6133 12.4512-63.2812L12.4512-22.7539C12.4512-7.42188 24.1211 2.97852 36.2793 2.97852L36.6211 2.97852L36.6211 16.7969C36.6211 20.8984 38.9648 23.3887 42.7246 23.3887ZM41.1621-47.8516C41.1621-54.9316 46.2402-60.1074 53.3691-60.1074C61.8652-60.1074 66.8457-53.1738 66.8457-44.6289C66.8457-34.4238 57.6172-25.9277 50.5371-25.9277C48.7793-25.9277 47.2656-26.7578 47.2656-28.6133C47.2656-29.8828 48.2422-30.8105 49.5117-31.1523C55.6152-32.373 59.3262-35.8887 60.0098-39.209L58.5938-39.209C57.0312-37.4023 54.5898-36.377 51.3672-36.377C45.5078-36.377 41.1621-41.1133 41.1621-47.8516ZM70.459-47.8516C70.459-54.9316 75.5371-60.1074 82.666-60.1074C91.1621-60.1074 96.0938-53.1738 96.0938-44.6289C96.0938-34.4238 86.9141-25.9277 79.8828-25.9277C78.0762-25.9277 76.6113-26.7578 76.6113-28.6133C76.6113-29.8828 77.5879-30.8105 78.8086-31.1523C84.9609-32.373 88.5742-35.8887 89.3066-39.209L87.8418-39.209C86.2793-37.4023 83.8379-36.377 80.7129-36.377C74.8047-36.377 70.459-41.1133 70.459-47.8516Z"/>
  </g>
  <g id="Heavy-M" transform="matrix(1 0 0 1 2569.23 1126)">
   <path d="M42.4316 22.3145C44.873 22.3145 46.875 21.3867 49.8047 18.7988L68.9453 2.14844L97.5098 2.14844C112.646 2.14844 122.461-7.71484 122.461-22.8027L122.461-62.5488C122.461-77.6367 112.646-87.5 97.5098-87.5L37.4023-87.5C22.2656-87.5 12.4512-77.6367 12.4512-62.5488L12.4512-22.8027C12.4512-7.71484 23.2422 2.14844 35.9375 2.14844L36.7188 2.14844L36.7188 16.0645C36.7188 19.9219 38.916 22.3145 42.4316 22.3145ZM41.5527-47.6074C41.5527-54.3457 46.4844-59.2773 53.2715-59.2773C61.2793-59.2773 66.0645-52.7832 66.0645-44.7266C66.0645-33.9844 56.7383-26.0742 50.1465-26.0742C48.4863-26.0742 47.0703-27.002 47.0703-28.6621C47.0703-29.9805 47.9492-30.8594 49.3652-31.2012C54.7852-32.373 58.4473-35.6445 59.4238-39.1113L58.2031-39.1113C56.7383-37.3535 54.3945-36.4746 51.4648-36.4746C45.6543-36.4746 41.5527-41.1133 41.5527-47.6074ZM70.1172-47.6074C70.1172-54.3457 75-59.2773 81.8359-59.2773C89.8438-59.2773 94.6289-52.7832 94.6289-44.7266C94.6289-33.9844 85.2539-26.0742 78.7598-26.0742C77.0508-26.0742 75.6836-27.002 75.6836-28.6621C75.6836-29.9805 76.5137-30.8594 77.8809-31.2012C83.3496-32.373 87.0117-35.6445 87.9883-39.1113L86.7676-39.1113C85.2539-37.3535 82.959-36.4746 80.0293-36.4746C74.2188-36.4746 70.1172-41.1133 70.1172-47.6074Z"/>
  </g>
  <g id="Bold-M" transform="matrix(1 0 0 1 2272.94 1126)">
   <path d="M42.0898 21.0449C44.3359 21.0449 46.1426 20.1172 48.877 17.6758L67.4805 1.2207L97.5586 1.2207C112.5 1.26953 121.631-8.00781 121.631-22.8027L121.631-61.7676C121.631-76.5625 112.5-85.791 97.5586-85.791L36.4746-85.791C21.582-85.791 12.4512-76.6113 12.4512-61.7676L12.4512-22.8027C12.4512-7.95898 22.2168 1.2207 35.5469 1.2207L36.8652 1.2207L36.8652 15.2344C36.8652 18.7988 38.8184 21.0449 42.0898 21.0449ZM41.9922-47.2656C41.9922-53.7109 46.7285-58.3496 53.2227-58.3496C60.6445-58.3496 65.2344-52.3438 65.2344-44.7754C65.2344-33.4961 55.7129-26.3184 49.707-26.3184C48.0957-26.3184 46.875-27.2461 46.875-28.7598C46.875-30.0293 47.6074-30.9082 49.1699-31.25C53.8086-32.3242 57.4707-35.3516 58.7402-38.9648L57.8125-38.9648C56.3965-37.3047 54.1504-36.6211 51.5625-36.6211C45.8496-36.6211 41.9922-41.1621 41.9922-47.2656ZM69.7266-47.2656C69.7266-53.7109 74.4629-58.3496 80.957-58.3496C88.3301-58.3496 92.9688-52.3438 92.9688-44.7754C92.9688-33.4961 83.4473-26.3184 77.4902-26.3184C75.8789-26.3184 74.6582-27.2461 74.6582-28.7598C74.6582-30.0293 75.3906-30.9082 76.9043-31.25C81.5918-32.3242 85.2051-35.3516 86.4746-38.9648L85.5469-38.9648C84.1309-37.3047 81.9336-36.6211 79.3457-36.6211C73.6328-36.6211 69.7266-41.1621 69.7266-47.2656Z"/>
  </g>
  <g id="Semibold-M" transform="matrix(1 0 0 1 1976.52 1126)">
   <path d="M41.8457 20.2148C43.9941 20.2148 45.6543 19.2383 48.1934 16.9434L66.4551 0.585938L97.6074 0.585938C112.402 0.634766 121.045-8.20312 121.045-22.8027L121.045-61.2305C121.045-75.8301 112.402-84.668 97.6074-84.668L35.8887-84.668C21.0938-84.668 12.4512-75.8789 12.4512-61.2305L12.4512-22.8027C12.4512-8.1543 21.4844 0.585938 35.2539 0.585938L36.9141 0.585938L36.9141 14.6973C36.9141 18.0664 38.7695 20.2148 41.8457 20.2148ZM42.2852-47.0703C42.2852-53.2715 46.9238-57.7148 53.1738-57.7148C60.1562-57.7148 64.6484-52.002 64.6484-44.8242C64.6484-33.1543 54.9805-26.4648 49.3652-26.4648C47.8516-26.4648 46.6797-27.3926 46.6797-28.8574C46.6797-30.0781 47.3633-30.9082 49.0234-31.2988C53.125-32.2754 56.8359-35.1562 58.252-38.916L57.5195-38.916C56.1523-37.2559 54.0039-36.7188 51.6602-36.7188C45.9961-36.7188 42.2852-41.1621 42.2852-47.0703ZM69.4824-47.0703C69.4824-53.2715 74.0723-57.7148 80.3223-57.7148C87.3047-57.7148 91.8457-52.002 91.8457-44.8242C91.8457-33.1543 82.1777-26.4648 76.6113-26.4648C75.0488-26.4648 73.9258-27.3926 73.9258-28.8574C73.9258-30.0781 74.5605-30.9082 76.1719-31.2988C80.3223-32.2754 83.9844-35.1562 85.4492-38.916L84.7168-38.916C83.3496-37.2559 81.2012-36.7188 78.8086-36.7188C73.1934-36.7188 69.4824-41.1621 69.4824-47.0703Z"/>
  </g>
  <g id="Medium-M" transform="matrix(1 0 0 1 1680.03 1126)">
   <path d="M41.6992 19.5312C43.75 19.5312 45.2637 18.5547 47.7051 16.3574L65.7227 0.0976562L97.6562 0.146484C112.354 0.146484 120.605-8.34961 120.605-22.8516L120.605-60.791C120.605-75.293 112.354-83.7891 97.6562-83.7891L35.4004-83.7891C20.752-83.7891 12.4512-75.293 12.4512-60.791L12.4512-22.8516C12.4512-8.30078 20.9961 0.0976562 35.0586 0.0976562L37.0117 0.0976562L37.0117 14.2578C37.0117 17.4805 38.7207 19.5312 41.6992 19.5312ZM42.4805-46.9238C42.4805-52.9297 47.0215-57.2266 53.125-57.2266C59.8145-57.2266 64.209-51.8066 64.209-44.873C64.209-32.9102 54.4434-26.5625 49.1699-26.5625C47.7051-26.5625 46.582-27.5391 46.582-28.9062C46.582-30.0781 47.168-30.9082 48.9258-31.3477C52.6367-32.2754 56.2988-35.0098 57.9102-38.8184L57.3242-38.8184C56.0059-37.2559 53.9062-36.7676 51.709-36.7676C46.0938-36.7676 42.4805-41.1621 42.4805-46.9238ZM69.2383-46.9238C69.2383-52.9297 73.7793-57.2266 79.834-57.2266C86.5234-57.2266 90.9668-51.8066 90.9668-44.873C90.9668-32.9102 81.25-26.5625 75.9277-26.5625C74.4629-26.5625 73.3887-27.5391 73.3887-28.9062C73.3887-30.0781 73.9746-30.9082 75.6836-31.3477C79.3945-32.2754 83.0566-35.0098 84.668-38.8184L84.082-38.8184C82.7637-37.2559 80.6641-36.7676 78.418-36.7676C72.8516-36.7676 69.2383-41.1621 69.2383-46.9238Z"/>
  </g>
  <g id="Regular-M" transform="matrix(1 0 0 1 1383.58 1126)">
   <path d="M41.4551 18.7012C43.3594 18.7012 44.7754 17.7246 47.0703 15.5762L64.6973-0.537109L97.7051-0.488281C112.256-0.439453 120.068-8.54492 120.068-22.8516L120.068-60.2539C120.068-74.5605 112.256-82.6172 97.7051-82.6172L34.8145-82.6172C20.2637-82.6172 12.4512-74.6094 12.4512-60.2539L12.4512-22.8516C12.4512-8.49609 20.2637-0.537109 34.8145-0.537109L37.1094-0.537109L37.1094 13.6719C37.1094 16.6992 38.6719 18.7012 41.4551 18.7012ZM42.7734-46.6797C42.7734-52.4902 47.2168-56.5918 53.0762-56.5918C59.375-56.5918 63.623-51.5137 63.623-44.9219C63.623-32.5684 53.7598-26.709 48.8281-26.709C47.4609-26.709 46.4355-27.7344 46.4355-28.9551C46.4355-30.127 46.9238-30.957 48.7793-31.3965C51.9531-32.2266 55.6641-34.8145 57.4219-38.7695L57.0312-38.7695C55.7617-37.207 53.7598-36.8652 51.7578-36.8652C46.2402-36.8652 42.7734-41.2109 42.7734-46.6797ZM68.9941-46.6797C68.9941-52.4902 73.3887-56.5918 79.248-56.5918C85.5469-56.5918 89.8438-51.5137 89.8438-44.9219C89.8438-32.5684 79.9805-26.709 75.0488-26.709C73.6816-26.709 72.6562-27.7344 72.6562-28.9551C72.6562-30.127 73.1445-30.957 74.9512-31.3965C78.1738-32.2266 81.8848-34.8145 83.6426-38.7695L83.252-38.7695C81.9824-37.207 79.9805-36.8652 77.9297-36.8652C72.4609-36.8652 68.9941-41.2109 68.9941-46.6797Z"/>
  </g>
  <g id="Light-M" transform="matrix(1 0 0 1 1087.68 1126)">
   <path d="M39.7949 17.3828C41.3574 17.3828 42.4805 16.5527 44.2383 14.9414L61.9141-0.830078L97.7051-0.830078C110.938-0.78125 118.457-8.49609 118.457-21.5332L118.457-60.791C118.457-73.877 110.938-81.543 97.7051-81.543L33.2031-81.543C19.9707-81.543 12.4512-73.9258 12.4512-60.791L12.4512-21.5332C12.4512-8.44727 19.9707-0.830078 33.2031-0.830078L36.2793-0.830078L36.2793 13.3301C36.2793 15.7715 37.5977 17.3828 39.7949 17.3828ZM43.2617-45.8984C43.2617-51.2207 47.3633-55.127 52.832-55.127C58.5449-55.127 62.7441-50.5371 62.7441-44.1895C62.7441-32.6172 53.2715-27.2949 48.9746-27.2949C47.7539-27.2949 46.875-28.1738 46.875-29.2969C46.875-30.2734 47.3145-31.0059 48.9258-31.3965C51.709-32.1289 55.6152-34.7168 57.2754-38.7695L56.8848-38.7695C55.6641-37.207 53.7109-36.7676 51.709-36.7676C46.5332-36.7676 43.2617-40.7227 43.2617-45.8984ZM68.2129-45.8984C68.2129-51.2207 72.3145-55.127 77.7832-55.127C83.4961-55.127 87.6953-50.5371 87.6953-44.1895C87.6953-32.6172 78.2715-27.2949 73.9258-27.2949C72.7051-27.2949 71.8262-28.1738 71.8262-29.2969C71.8262-30.2734 72.3145-31.0059 73.877-31.3965C76.6602-32.1289 80.6152-34.7168 82.2266-38.7695L81.8848-38.7695C80.6152-37.207 78.7109-36.7676 76.6602-36.7676C71.5332-36.7676 68.2129-40.7227 68.2129-45.8984Z"/>
  </g>
  <g id="Thin-M" transform="matrix(1 0 0 1 792.042 1126)">
   <path d="M37.5977 15.625C38.6719 15.625 39.502 14.9902 40.5273 14.1113L58.252-1.2207L97.7051-1.2207C109.229-1.2207 116.309-8.44727 116.309-19.8242L116.309-61.5234C116.309-72.9004 109.229-80.127 97.7051-80.127L31.0547-80.127C19.5312-80.127 12.4512-72.998 12.4512-61.5234L12.4512-19.8242C12.4512-8.34961 19.5312-1.2207 31.0547-1.2207L35.2051-1.2207L35.2051 12.8906C35.2051 14.5508 36.1816 15.625 37.5977 15.625ZM43.8477-44.8242C43.8477-49.5605 47.6074-53.2227 52.4902-53.2227C57.4219-53.2227 61.5723-49.2676 61.5723-43.2617C61.5723-32.666 52.6367-28.0273 49.1211-28.0273C48.1445-28.0273 47.4121-28.7598 47.4121-29.6875C47.4121-30.5176 47.8516-31.0547 49.1211-31.3965C51.3672-32.0312 55.5664-34.5703 57.0801-38.8184L56.6895-38.8184C55.5176-37.2559 53.6621-36.6211 51.6602-36.6211C46.9727-36.6211 43.8477-40.1367 43.8477-44.8242ZM67.1875-44.8242C67.1875-49.5605 70.8984-53.2227 75.8301-53.2227C80.7617-53.2227 84.9121-49.2676 84.9121-43.2617C84.9121-32.666 75.9277-28.0273 72.4609-28.0273C71.4844-28.0273 70.752-28.7598 70.752-29.6875C70.752-30.5176 71.1914-31.0547 72.4121-31.3965C74.707-32.0312 78.9062-34.5703 80.4199-38.8184L80.0293-38.8184C78.8086-37.2559 77.002-36.6211 75-36.6211C70.3125-36.6211 67.1875-40.1367 67.1875-44.8242Z"/>
  </g>
  <g id="Ultralight-M" transform="matrix(1 0 0 1 495.893 1126)">
   <path d="M36.4746 14.6973C37.2559 14.6973 37.9395 14.209 38.5742 13.6719L56.3477-1.41602L97.7051-1.41602C108.35-1.41602 115.186-8.39844 115.186-18.9453L115.186-61.9141C115.186-72.4121 108.35-79.3945 97.7051-79.3945L29.9316-79.3945C19.2871-79.3945 12.4512-72.5586 12.4512-61.9141L12.4512-18.9453C12.4512-8.25195 19.2871-1.41602 29.9316-1.41602L34.668-1.41602L34.668 12.6465C34.668 13.916 35.4492 14.6973 36.4746 14.6973ZM44.1895-44.2383C44.1895-48.7305 47.7051-52.2461 52.3438-52.2461C56.8848-52.2461 60.9863-48.584 60.9863-42.7734C60.9863-32.7148 52.2949-28.418 49.2188-28.418C48.3398-28.418 47.7051-29.0527 47.7051-29.9316C47.7051-30.6152 48.0957-31.1035 49.2188-31.3965C51.1719-31.9336 55.5664-34.5215 56.9824-38.8184L56.5918-38.8184C55.4199-37.2559 53.6133-36.5723 51.6113-36.5723C47.2168-36.5723 44.1895-39.8438 44.1895-44.2383ZM66.6504-44.2383C66.6504-48.7305 70.2148-52.2461 74.8535-52.2461C79.3457-52.2461 83.4961-48.584 83.4961-42.7734C83.4961-32.7148 74.7559-28.418 71.6797-28.418C70.8496-28.418 70.2148-29.0527 70.2148-29.9316C70.2148-30.6152 70.6055-31.1035 71.6797-31.3965C73.6816-31.9336 78.0273-34.5215 79.4434-38.8184L79.1016-38.8184C77.9297-37.2559 76.123-36.5723 74.1211-36.5723C69.7266-36.5723 66.6504-39.8438 66.6504-44.2383Z"/>
  </g>
  <g id="Black-S" transform="matrix(1 0 0 1 2880.28 696)">
   <path d="M33.4961 10.6445C35.498 10.6445 37.2559 9.96094 39.6973 7.8125L54.9805-5.37109L76.3672-5.37109C88.3789-5.37109 96.4844-13.4766 96.4844-25.4883L96.4844-57.1289C96.4844-69.1406 88.3789-77.2461 76.3672-77.2461L29.8828-77.2461C17.8711-77.2461 9.76562-69.1406 9.76562-57.1289L9.76562-25.4883C9.76562-13.4766 18.8477-5.37109 28.418-5.37109L28.7109-5.37109L28.7109 5.46875C28.7109 8.69141 30.5664 10.6445 33.4961 10.6445ZM32.2754-45.1172C32.2754-50.6348 36.2305-54.6875 41.7969-54.6875C48.4375-54.6875 52.2949-49.2676 52.2949-42.627C52.2949-34.5703 45.0684-27.9297 39.5508-27.9297C38.1836-27.9297 37.0117-28.6133 37.0117-30.0293C37.0117-31.0547 37.7441-31.7871 38.7695-32.0312C43.5059-33.0078 46.3867-35.7422 46.9727-38.3301L45.8496-38.3301C44.6289-36.9141 42.7246-36.1328 40.2344-36.1328C35.6445-36.1328 32.2754-39.8438 32.2754-45.1172ZM55.1758-45.1172C55.1758-50.6348 59.1309-54.6875 64.6973-54.6875C71.3379-54.6875 75.1953-49.2676 75.1953-42.627C75.1953-34.5703 67.9688-27.9297 62.5-27.9297C61.084-27.9297 59.9609-28.6133 59.9609-30.0293C59.9609-31.0547 60.6934-31.7871 61.6699-32.0312C66.4551-33.0078 69.2871-35.7422 69.873-38.3301L68.75-38.3301C67.5293-36.9141 65.625-36.1328 63.1836-36.1328C58.5449-36.1328 55.1758-39.8438 55.1758-45.1172Z"/>
  </g>
  <g id="Heavy-S" transform="matrix(1 0 0 1 2583.76 696)">
   <path d="M33.4473 9.96094C35.4004 9.96094 37.0117 9.22852 39.3555 7.12891L54.2969-5.95703L76.416-5.95703C88.4277-5.95703 96.0938-13.6719 96.0938-25.6348L96.0938-56.543C96.0938-68.5059 88.4277-76.2207 76.416-76.2207L29.4434-76.2207C17.4316-76.2207 9.76562-68.5059 9.76562-56.543L9.76562-25.6348C9.76562-13.6719 18.2129-5.95703 28.3203-5.95703L28.9062-5.95703L28.9062 4.93164C28.9062 8.05664 30.6152 9.96094 33.4473 9.96094ZM32.5195-45.0195C32.5195-50.3418 36.377-54.1992 41.748-54.1992C48.0957-54.1992 51.8066-49.0723 51.8066-42.7734C51.8066-34.2285 44.4336-28.0273 39.209-28.0273C37.8906-28.0273 36.8164-28.7109 36.8164-30.0781C36.8164-31.1035 37.4512-31.7871 38.623-32.0801C42.8711-33.0078 45.752-35.5469 46.5332-38.2324L45.6055-38.2324C44.4336-36.8652 42.5781-36.2305 40.332-36.2305C35.7422-36.2305 32.5195-39.8926 32.5195-45.0195ZM54.9805-45.0195C54.9805-50.3418 58.8379-54.1992 64.2578-54.1992C70.5566-54.1992 74.3164-49.0723 74.3164-42.7734C74.3164-34.2285 66.8945-28.0273 61.7676-28.0273C60.4004-28.0273 59.3262-28.7109 59.3262-30.0781C59.3262-31.1035 60.0098-31.7871 61.084-32.0801C65.3809-33.0078 68.2129-35.5469 68.9941-38.2324L68.0664-38.2324C66.8945-36.8652 65.0879-36.2305 62.8418-36.2305C58.2031-36.2305 54.9805-39.8926 54.9805-45.0195Z"/>
  </g>
  <g id="Bold-S" transform="matrix(1 0 0 1 2287.27 696)">
   <path d="M33.3984 9.13086C35.2539 9.13086 36.7188 8.39844 38.9648 6.34766L53.5156-6.64062L76.4648-6.64062C88.4766-6.5918 95.6543-13.916 95.6543-25.8301L95.6543-55.8594C95.6543-67.7734 88.4766-75.0488 76.4648-75.0488L28.9551-75.0488C16.9434-75.0488 9.76562-67.7734 9.76562-55.8594L9.76562-25.8301C9.76562-13.916 17.4316-6.64062 28.2227-6.64062L29.1016-6.64062L29.1016 4.3457C29.1016 7.32422 30.7129 9.13086 33.3984 9.13086ZM32.7637-44.873C32.7637-50 36.5723-53.6621 41.748-53.6621C47.6562-53.6621 51.2695-48.8281 51.2695-42.8711C51.2695-33.8379 43.7012-28.0762 38.8672-28.0762C37.5977-28.0762 36.5723-28.8574 36.5723-30.127C36.5723-31.1035 37.1582-31.8359 38.4766-32.1289C42.1875-32.959 44.9707-35.3516 45.9961-38.1836L45.3125-38.1836C44.1895-36.8652 42.4316-36.3281 40.3809-36.3281C35.8398-36.3281 32.7637-39.9902 32.7637-44.873ZM54.7852-44.873C54.7852-50 58.5449-53.6621 63.7207-53.6621C69.6777-53.6621 73.291-48.8281 73.291-42.8711C73.291-33.8379 65.7227-28.0762 60.9375-28.0762C59.6191-28.0762 58.6426-28.8574 58.6426-30.127C58.6426-31.1035 59.2285-31.8359 60.4492-32.1289C64.209-32.959 66.9922-35.3516 68.0176-38.1836L67.334-38.1836C66.2109-36.8652 64.4531-36.3281 62.4023-36.3281C57.8613-36.3281 54.7852-39.9902 54.7852-44.873Z"/>
  </g>
  <g id="Semibold-S" transform="matrix(1 0 0 1 1990.7 696)">
   <path d="M33.3496 8.59375C35.1562 8.59375 36.5234 7.8125 38.7207 5.81055L52.9785-7.08008L76.5137-7.08008C88.5254-7.03125 95.3613-14.0625 95.3613-25.9277L95.3613-55.3711C95.3613-67.2852 88.5254-74.2676 76.5137-74.2676L28.6621-74.2676C16.6504-74.2676 9.76562-67.2852 9.76562-55.3711L9.76562-25.9277C9.76562-14.0625 16.9434-7.08008 28.1738-7.08008L29.248-7.08008L29.248 3.95508C29.248 6.78711 30.7617 8.59375 33.3496 8.59375ZM32.959-44.7754C32.959-49.7559 36.6699-53.3203 41.6992-53.3203C47.3633-53.3203 50.8789-48.6816 50.8789-42.9688C50.8789-33.5938 43.2129-28.1738 38.623-28.1738C37.4023-28.1738 36.4258-28.9551 36.4258-30.127C36.4258-31.1523 36.9629-31.8359 38.3301-32.1777C41.6992-32.959 44.4824-35.2051 45.6543-38.0859L45.1172-38.0859C43.9941-36.8164 42.334-36.4258 40.4785-36.4258C35.8887-36.4258 32.959-40.0391 32.959-44.7754ZM54.6387-44.7754C54.6387-49.7559 58.3496-53.3203 63.3789-53.3203C69.043-53.3203 72.6074-48.6816 72.6074-42.9688C72.6074-33.5938 64.9414-28.1738 60.3516-28.1738C59.082-28.1738 58.1543-28.9551 58.1543-30.127C58.1543-31.1523 58.6914-31.8359 60.0098-32.1777C63.3789-32.959 66.2109-35.2051 67.3828-38.0859L66.7969-38.0859C65.7227-36.8164 64.0137-36.4258 62.1582-36.4258C57.6172-36.4258 54.6387-40.0391 54.6387-44.7754Z"/>
  </g>
  <g id="Medium-S" transform="matrix(1 0 0 1 1694.09 696)">
   <path d="M33.3496 8.20312C35.0586 8.20312 36.377 7.37305 38.4766 5.41992L52.5879-7.4707L76.5137-7.42188C88.5254-7.37305 95.166-14.209 95.166-26.0254L95.166-55.0293C95.166-66.8945 88.5254-73.6816 76.5137-73.6816L28.418-73.6816C16.4062-73.6816 9.76562-66.8945 9.76562-55.0293L9.76562-26.0254C9.76562-14.209 16.5527-7.4707 28.125-7.4707L29.3457-7.4707L29.3457 3.66211C29.3457 6.39648 30.8105 8.20312 33.3496 8.20312ZM33.1055-44.6777C33.1055-49.6094 36.7676-53.0273 41.6992-53.0273C47.168-53.0273 50.6348-48.584 50.6348-43.0664C50.6348-33.3984 42.8223-28.2227 38.4277-28.2227C37.207-28.2227 36.3281-29.0527 36.3281-30.127C36.3281-31.1523 36.7676-31.8359 38.2812-32.1777C41.3086-32.959 44.0918-35.1074 45.4102-38.0371L44.9707-38.0371C43.8965-36.8164 42.2363-36.4746 40.5273-36.4746C35.9863-36.4746 33.1055-40.0879 33.1055-44.6777ZM54.541-44.6777C54.541-49.6094 58.2031-53.0273 63.1348-53.0273C68.6035-53.0273 72.0703-48.584 72.0703-43.0664C72.0703-33.3984 64.3066-28.2227 59.9121-28.2227C58.6914-28.2227 57.7637-29.0527 57.7637-30.127C57.7637-31.1523 58.252-31.8359 59.668-32.1777C62.793-32.959 65.5762-35.1074 66.8457-38.0371L66.4062-38.0371C65.332-36.8164 63.7207-36.4746 61.9629-36.4746C57.4219-36.4746 54.541-40.0879 54.541-44.6777Z"/>
  </g>
  <g id="Regular-S" transform="matrix(1 0 0 1 1397.53 696)">
   <path d="M33.3008 7.66602C35.0098 7.66602 36.1816 6.78711 38.2324 4.88281L52.0508-7.91016L76.5625-7.86133C88.5742-7.8125 94.873-14.3555 94.873-26.1719L94.873-54.5898C94.873-66.4062 88.5742-72.9004 76.5625-72.9004L28.0762-72.9004C16.0645-72.9004 9.76562-66.4062 9.76562-54.5898L9.76562-26.1719C9.76562-14.3555 16.0645-7.91016 28.0762-7.91016L29.4434-7.91016L29.4434 3.27148C29.4434 5.9082 30.8594 7.66602 33.3008 7.66602ZM33.252-44.5801C33.252-49.3652 36.9141-52.6367 41.6504-52.6367C46.875-52.6367 50.2441-48.4375 50.2441-43.1641C50.2441-33.1055 42.334-28.2715 38.1836-28.2715C37.0117-28.2715 36.1328-29.1016 36.1328-30.1758C36.1328-31.1523 36.5723-31.8359 38.1348-32.2266C40.8203-32.959 43.6035-34.9609 45.0684-37.9883L44.7754-37.9883C43.75-36.7676 42.1387-36.5723 40.5762-36.5723C36.0352-36.5723 33.252-40.1367 33.252-44.5801ZM54.4434-44.5801C54.4434-49.3652 58.0078-52.6367 62.7441-52.6367C67.9688-52.6367 71.3867-48.4375 71.3867-43.1641C71.3867-33.1055 63.4766-28.2715 59.3262-28.2715C58.1543-28.2715 57.2754-29.1016 57.2754-30.1758C57.2754-31.1523 57.7148-31.8359 59.2773-32.2266C61.9629-32.959 64.7461-34.9609 66.2109-37.9883L65.918-37.9883C64.8926-36.7676 63.2812-36.5723 61.6699-36.5723C57.1777-36.5723 54.4434-40.1367 54.4434-44.5801Z"/>
  </g>
  <g id="Light-S" transform="matrix(1 0 0 1 1101.55 696)">
   <path d="M31.8359 6.49414C33.2031 6.49414 34.1797 5.76172 35.7422 4.3457L49.6094-8.1543L76.5625-8.1543C87.4023-8.10547 93.4082-14.3066 93.4082-25L93.4082-55.0781C93.4082-65.7715 87.4023-71.9238 76.5625-71.9238L26.6113-71.9238C15.7715-71.9238 9.76562-65.8203 9.76562-55.0781L9.76562-25C9.76562-14.2578 15.7715-8.1543 26.6113-8.1543L28.7598-8.1543L28.7598 2.97852C28.7598 5.07812 29.8828 6.49414 31.8359 6.49414ZM33.6914-43.8965C33.6914-48.2422 37.0605-51.3672 41.4551-51.3672C46.1426-51.3672 49.4629-47.6074 49.4629-42.5293C49.4629-33.1543 41.8945-28.7598 38.2812-28.7598C37.2559-28.7598 36.5234-29.541 36.5234-30.4688C36.5234-31.2988 36.9141-31.8848 38.2812-32.2266C40.5762-32.8613 43.5547-34.8633 44.9219-37.9883L44.6289-37.9883C43.6523-36.7676 42.0898-36.4746 40.5273-36.4746C36.3281-36.4746 33.6914-39.6973 33.6914-43.8965ZM53.7109-43.8965C53.7109-48.2422 57.0312-51.3672 61.4746-51.3672C66.1621-51.3672 69.5312-47.6074 69.5312-42.5293C69.5312-33.1543 61.9629-28.7598 58.3496-28.7598C57.3242-28.7598 56.5918-29.541 56.5918-30.4688C56.5918-31.2988 56.9824-31.8848 58.3008-32.2266C60.6445-32.8613 63.623-34.8633 64.9414-37.9883L64.6484-37.9883C63.6719-36.7676 62.1094-36.4746 60.5469-36.4746C56.3965-36.4746 53.7109-39.6973 53.7109-43.8965Z"/>
  </g>
  <g id="Thin-S" transform="matrix(1 0 0 1 805.763 696)">
   <path d="M29.8828 4.93164C30.8105 4.93164 31.4941 4.44336 32.4707 3.61328L46.3379-8.49609L76.5625-8.49609C85.9375-8.49609 91.5527-14.2578 91.5527-23.4863L91.5527-55.7129C91.5527-64.9414 85.9375-70.6543 76.5625-70.6543L24.7559-70.6543C15.3809-70.6543 9.76562-64.9902 9.76562-55.7129L9.76562-23.4863C9.76562-14.1602 15.3809-8.49609 24.7559-8.49609L27.7832-8.49609L27.7832 2.53906C27.7832 4.00391 28.6133 4.93164 29.8828 4.93164ZM34.2285-42.9199C34.2285-46.7773 37.207-49.707 41.2109-49.707C45.2148-49.707 48.4375-46.4844 48.4375-41.6992C48.4375-33.2031 41.3574-29.4434 38.4277-29.4434C37.5977-29.4434 37.0117-30.0293 37.0117-30.8105C37.0117-31.4941 37.3535-31.9336 38.4277-32.2266C40.2832-32.7637 43.5547-34.7656 44.7266-38.0371L44.4336-38.0371C43.5059-36.8164 42.041-36.377 40.4785-36.377C36.7188-36.377 34.2285-39.209 34.2285-42.9199ZM52.832-42.9199C52.832-46.7773 55.8105-49.707 59.7656-49.707C63.7695-49.707 67.041-46.4844 67.041-41.6992C67.041-33.2031 59.9121-29.4434 57.0312-29.4434C56.2012-29.4434 55.6152-30.0293 55.6152-30.8105C55.6152-31.4941 55.957-31.9336 57.0312-32.2266C58.8867-32.7637 62.1094-34.7656 63.3301-38.0371L63.0371-38.0371C62.1094-36.8164 60.6445-36.377 59.0332-36.377C55.3223-36.377 52.832-39.209 52.832-42.9199Z"/>
  </g>
  <g id="Ultralight-S" transform="matrix(1 0 0 1 509.54 696)">
   <path d="M28.9062 4.15039C29.5898 4.15039 30.127 3.71094 30.7617 3.22266L44.6777-8.69141L76.5625-8.69141C85.1562-8.69141 90.5762-14.209 90.5762-22.7051L90.5762-56.0059C90.5762-64.502 85.1562-70.0195 76.5625-70.0195L23.7793-70.0195C15.1855-70.0195 9.76562-64.5996 9.76562-56.0059L9.76562-22.7051C9.76562-14.1113 15.1855-8.69141 23.7793-8.69141L27.2949-8.69141L27.2949 2.34375C27.2949 3.4668 27.9785 4.15039 28.9062 4.15039ZM34.5215-42.4316C34.5215-46.0449 37.3535-48.8281 41.0645-48.8281C44.6777-48.8281 47.9004-45.8984 47.9004-41.2598C47.9004-33.252 41.0156-29.7852 38.5254-29.7852C37.793-29.7852 37.3047-30.3223 37.3047-31.0059C37.3047-31.5918 37.5977-31.9824 38.5254-32.2266C40.1367-32.666 43.5059-34.668 44.6289-38.0371L44.3359-38.0371C43.4082-36.8164 41.9922-36.2793 40.4297-36.2793C36.9141-36.2793 34.5215-38.916 34.5215-42.4316ZM52.3438-42.4316C52.3438-46.0449 55.1758-48.8281 58.8867-48.8281C62.5488-48.8281 65.7715-45.8984 65.7715-41.2598C65.7715-33.252 58.8867-29.7852 56.3477-29.7852C55.6641-29.7852 55.127-30.3223 55.127-31.0059C55.127-31.5918 55.4199-31.9824 56.3477-32.2266C57.959-32.666 61.377-34.668 62.5-38.0371L62.207-38.0371C61.2793-36.8164 59.8633-36.2793 58.3008-36.2793C54.7852-36.2793 52.3438-38.916 52.3438-42.4316Z"/>
  </g>
 </g>
</svg>
